<svg xmlns="http://www.w3.org/2000/svg" viewBox="0 0 532.2 335.29"><defs><style>.cls-1{fill:#8cdabd;}.cls-2{fill:#f1d671;}.cls-3{fill:#fc83aa;}.cls-4{fill:#fde073;}.cls-5{fill:#979ff7;}.cls-6{fill:#f582a7;}.cls-7{fill:#969ef6;}.cls-11,.cls-7,.cls-8{stroke:#000;stroke-miterlimit:10;}.cls-8{fill:#f982a8;}.cls-9{fill:#f781a7;}.cls-10{fill:#e589a7;}.cls-11{fill:#f8f8f8;}.cls-12{fill:#fce073;}</style></defs><g id="Layer_2" data-name="Layer 2"><g id="Layer_1-2" data-name="Layer 1"><path class="cls-1" d="M304.67,175.53l-5.29,4-6.46-4.08a5.56,5.56,0,0,1,1.35-6.29l6.29-.67a6.69,6.69,0,0,0,4.32,5.74A1,1,0,0,1,304.67,175.53Z"/><path class="cls-2" d="M255.17,205.16l-3-4.56c.19-3.76-5.33-3.87-4.94-7.75,4.45-2.66,7.22,2.37,11.08,2.42C257.58,198.67,257.19,202.17,255.17,205.16Z"/><path class="cls-1" d="M102.14,148.26c2.77-.47,1.9-2,1.29-3.77Q89.1,101.9,120.13,69.35C135,53.79,150.75,39.06,165.55,23.47,191.67-4,236-4.74,261.08,18.3,280,35.65,298.2,53.76,315.47,72.74c12.77,14,18.13,30.88,16.74,49.84-.14,2,0,3.91,0,5.87a12.14,12.14,0,0,1-.66,4.19c-6-3-12.59-.33-15.64,6.24-1.38,3-1.56,6.25-2.21,9.41-.49,1.67-1.68,2.91-2.6,4.33-2.33,3.61-3.75,7,2.18,8.63a3.08,3.08,0,0,1,2.61,3.15c-.26,1.7-1.41,2.83-2.49,4-3,2.33-4.81,6.39-9.35,6.51-3-.94-4.31-3.17-4.81-6.07-1.21-5.7,2.56-11.57-.62-17.2a12.65,12.65,0,0,1-.69-4.48A35.47,35.47,0,0,0,287,121.49c-19-19.07-38-38.21-57.21-57.16-9.09-9-17.91-9.22-26.65.12-16.8,17.92-34.18,35.26-51.54,52.62-1.72,1.72-2.4,4.13-4.3,5.66-5,1.37-10.25,1-15.27,2.23-2.64.67-5.92.34-6.86,3.78-.84,3.07,1.63,4.62,3.55,6.32a5.05,5.05,0,0,1,1.12,1.57c-.33,4.21-4,6-6.44,8.57-3.14,3.29-6.13,6.74-9.57,9.75C109.51,153.41,105.05,152.19,102.14,148.26Z"/><path class="cls-3" d="M432.56,205.06c3.33,25.29-4,46.49-22.94,64.1-15.91,14.83-30.49,31.06-46.32,46-25.65,24.2-64.42,26.16-93.48,1.79-19.81-16.61-37.73-35.58-54.92-55-13.58-15.32-17.44-34.08-14.65-54.24,2.07-1.27,4.2-.39,6.3-.17,2.59.27,5.35.82,7.73,0,8.1-2.69,16.07-4.44,24.14-.11,4.23,1.12,5.59,5.28,8.31,8,17.79,17.65,35.23,35.65,53.27,53,14.77,14.25,18.72,10.44,29.45,1.7,5.33-4.34,9.08-9.95,13.89-14.68,14.28-14.07,28.39-28.31,42.55-42.5,1.84-1.84,3.86-3.54,5.13-5.88,1.35-2.49,2.25-5,4-7.34,1.19-.68,2.1-6.8,2.59-5.78,1.15,2.32-.15,8.65,1.65,7.24,8.5,7.66,18,8.11,28.23,4.12C429.12,204.77,430.82,204.27,432.56,205.06Z"/><path class="cls-4" d="M366,136.24c.24-.69.48-1.37.71-2.05,3,.86,3.07,5.79,8,4.67,9.85-2.22,10.73-2.86,9.11-12.87-.24-1.51-.59-3,.41-4.4,2.24-1.7,5-1.13,7.49-1.68,6.47-1.45,12.73-8.08,12.94-13.8.24-6.5-7-15.59-13.7-17.29-5.66-1.43-13.23,2.84-16.3,9.22-1,2.09-1.11,4.71-3.52,6q-44.85-44.67-89.76-89.31c-3.88-3.85-1.59-5.48,1.79-7,25.69-11.74,50.62-10.55,73,7.14C376.59,31,394.08,50.57,412,69.58c-4.65,2.89-5.23,6.91-3.35,11.7,2.67,6.83,3.06,14.34,6.49,21.41-1.74-8.24,4-11.4,9.27-14.88a1.8,1.8,0,0,1,1.74.16c7.39,20,7.43,39.89-.21,59.8-3.49,3.48-8.2,1.95-12.31,2.83-13.18,2.81-15.54,9.23-7,20.3a2.09,2.09,0,0,1,.24,2.4c-4.87,6.86-11,12.51-17.49,17.75a2,2,0,0,1-3.23-.75c-1.8-8.81-.63-17.71-.83-26.57-.29-13.25-1.34-14.26-14.2-12.19A23.62,23.62,0,0,0,366,152.7c-4.27,1.7-5.25,4.93-1.73,7.83,4.43,3.66,5.22,8.16,5.07,13.34-.13,4.33-.08,8.67,0,13,.06,4.72-.3,9.14-5.21,11.68-1.95,1-2.5,2.93-2.16,5s2.1,2.53,3.87,2.81a10.65,10.65,0,0,1,3.73,1.07c2.18,3.48-.95,5.12-2.68,7-23.47,25-64.1,28.84-91.87,8.64a64.46,64.46,0,0,1-10.47-8.82c-1.56-1.75-3.63-3.27-3.19-6.08,3.76-2.38,7.71-.54,11.4-.08,12.21,1.54,22.43-1.21,29.63-11.85,4.23-2.45,7.51-6.32,12.18-8.11a2.26,2.26,0,0,1,1.54,1.2c.87,1.81.75,3.81,1.15,5.71,1.64,7.6,6.72,12.14,14.42,12.59,5,.29,9.94.38,14.74-1.46,3.21-1.24,5.24-3.13,4.38-6.83-.81-3.5-3.54-3-6.21-2.93-8.66.33-11.41-2.21-11.52-10.83-.07-5.4-.42-10.82.35-16.22a13.53,13.53,0,0,1,6.82-7.85c.84-.17-.26-.09.6-.22,9.52-1.52,9.52-1.52,11.28-11.22a6,6,0,0,1,2.27-2l3.95-4C359.51,140.2,363.25,138.72,366,136.24Z"/><path class="cls-5" d="M130.85,277.32a12.05,12.05,0,0,1-4.95-5.05,5.72,5.72,0,0,1,1.44-1.2c1-.65,2.7-1.38,1.86-2.74-1.25-2-2.45-.2-3.53.64a7.55,7.55,0,0,1-1.55,1c-17.82-16.27-25.7-36.4-23.45-60.45,2.4-3.41,6.58-2.81,9.8-4.37,2.12-1,4.54-1.69,5.5-4.16,1.58-4.06-1.4-7.51-5.78-6.7-1.91.36-3.77,1.06-5.61-.15-2-5.34,2.86-8.71,3.76-13.23a4,4,0,0,1,2.09-1.39c9.06-2.44,9.06-2.44,9.2-11.82,1.37-2.95,3.75-5,6.23-6.92,1.46-1.12,3.2-2.39,4.69.12,1.85,10.75.56,21.57.83,32.36.25,9.91.87,10.53,10.55,13,4.95,1.27,10.5-.16,14.91,3.36-4.14,8.16-2,14.66,4.4,20.94q44,43.59,87.67,87.58c5.94,5.94,5.57,7.32-2.38,10.57-30.67,12.55-57.66,6.86-81.13-16.32-2.47-2.45-4.87-5-7.31-7.44-3.31-2.85-6.5-5.82-9.64-8.86-2.23-7-7.19-12.29-11.22-18.17C135.47,275.42,133.12,276.23,130.85,277.32Z"/><path class="cls-5" d="M197.26,168.78c-4.91,1.92-6.64,6.88-9.93,10.36-2.35-1.62-1.94-4.17-2.14-6.48-1.32-15.56-9.48-23-24.94-22.75-.86,0-1.73,0-2.59.09-10.5.61-11.75-1-9.47-11.95,8.53-8.39,16.26-17.7,25.76-25,24.62-18.85,61-18.36,86,.62a147.18,147.18,0,0,1,23.14,22c1.72,2,4.65,4.35,2.91,7.32s-5.13,1.28-7.78.77A90.1,90.1,0,0,1,264.35,140c-17.61-6.41-33.35-3.75-47.27,9-4.52,1.52-9.27,1.92-13.92,2.83-4.36.85-6.18,2.93-5.5,7.65C198.09,162.45,199.51,165.78,197.26,168.78Z"/><path d="M149.35,137.81v11.58c4.1-.51,7.72-1.24,11.37-1.37,15.49-.54,25.27,8.42,26.36,24,.16,2.38.17,4.76.25,7.13-1.61,19.56-10.85,28.82-30.49,30.55a71.37,71.37,0,0,1-22.39-3.37c-3.54-1.13-4.7-2.64-4.67-6.34.1-13.44-.17-26.89-.31-40.33-3.5-7.29-2.53-14.65-.31-22a37.35,37.35,0,0,0-4.22-2.82c-3.64-1.78-1.76-4.91-1.93-7.48-.2-2.85,2.08-2.67,4-3,6.82-1.22,13.62-2.62,20.6-2.55C153.06,126.59,151.48,132.17,149.35,137.81Z"/><path d="M25.05,209.56c-5.86-.26-11.65-1.31-17.46-1.89C.34,207-.82,203.4.45,197.36a54.66,54.66,0,0,0,.83-7.12c.21-2.81-.15-5.38,4.05-6.07,3.69-.61,5.84-.41,7.82,3.19,3.62,6.57,12.55,9.59,20.1,7.45,1.52-.44,3-.83,3-2.8,0-2.45-.42-4.73-2.54-6.41-3.62-2.86-7.91-4.42-12-6.43-9.31-4.59-18.09-9.7-19.41-21.63s5.25-22,16.77-25.28c11.26-3.17,22.37-1.82,33.4,1.37,2.9.84,4.45,2.19,4,5.54s0,6.59-.64,9.75c-.52,2.57,1.27,6.12-3.23,7.47s-7.2,0-9.07-3.69c-3.35-6.67-9.06-8.25-15.78-7.56-1.88.19-4.67-1.12-5.44,2-.58,2.35-.51,4.75,1.23,6.78a19.33,19.33,0,0,0,6.13,4.74q8.14,4.08,16.2,8.33c8.71,4.61,14.54,10.94,13,21.75-1.38,9.45-8.63,16.86-19.51,19.44A47.36,47.36,0,0,1,25.05,209.56Z"/><path d="M477.84,208.22c-3,0-6.15.33-9.14-.1-2.38-.35-6.39,2.22-6.88-2.09-.43-3.7-2.87-9.14,4.21-10.09,2.49-.33,2.15-2.3,2.15-4,0-7.84-.05-15.69,0-23.53,0-2.61-.42-4.88-3.13-5.78-4.57-1.52-3.94-5.12-3.61-8.57.36-3.92,3.79-2.87,6-3.37,4.24-.92,8.56-1.5,12.86-2.17,2.58-.4,5.23-1.13,6,2.79.66,3.2,3,1,4.07.53a48.85,48.85,0,0,1,11.82-3.5c13.46-2,21.35,4.34,21.94,18.06.34,7.83.31,15.69.07,23.52-.12,3.73,1,6.58,4.39,7.75,4.5,1.54,3.48,4.88,3.18,8-.43,4.46-4,2.38-6.12,2.47-7,.28-13.94.17-20.91,0-1.67,0-4.54,1.14-4.35-2.13.18-3.12-3.18-7.36,1.59-9.14,3.07-1.15,3.27-2.85,3.26-5.35-.05-7-.09-14,0-20.92.06-6-3-8.25-8.64-7.62-4.64.52-10.42-.77-9.36,7.49.69,5.36.26,10.89.09,16.33-.15,4.93-.18,9.42,5.6,11.69,3.54,1.39,1.95,4.79,1.64,7.49-.41,3.63-3.26,2-5.08,2.14C485.69,208.38,481.76,208.22,477.84,208.22Z"/><path d="M406.58,171.82c-2.3-.13-3.76-.87-4.58-3.47-4.55-14.41-3.15-16.89,11.71-19.19,4.05-.63,8.14-.94,12.2-1.39,20.85.93,24.54,4.84,24.54,26,0,4.77.06,9.54,0,14.31-.06,4,.06,7.77,4.7,9.58,2.68,1,1.74,3.52,1.7,5.65,0,2.63-1.69,3.16-3.78,3.49-3.2.5-6.39,1.11-9.59,1.68-3.92.7-8.11,2-9.25-3.87l-1.65.44c-5.11,1.68-9.95,4.09-15.47,4.54-7.52.61-13.59-1.57-17.95-7.9-5-3.94-3.72-8.89-1.73-13.54,2.85-6.67,8.53-10.21,15.26-12.26a61.17,61.17,0,0,1,12.8-2.36c2.2-.18,4.61-.73,4.74-3.51.15-3-1.75-4.92-4.6-5.47-4.53-.87-8.63-.52-11.2,4.26C412.77,171.86,410.51,174.27,406.58,171.82Z"/><path d="M197.26,168.78c-2.68-17.28-2.68-17.29,14.81-20.13l5.16-.81c5.91-2.59,11.82-2.14,17.73,0,2.95,1.6,6.12,2.88,8.43,5.47,3.3,4.32,4.32,9.32,4.34,14.62,0,8,0,16,.05,23.95.44,4.12,5.63,5.25,6,9.45-1.23,7.31-5.78,9.58-14.42,7.2-3.66.06-8.11,3-9.7-3.62-.48-2-3,.3-4.29.94-8.15,4-16.43,5.34-25.1,1.88-11.28-10.23-9.4-22.06,4.58-28.41,2.34-1.06,4.81-1.82,7.23-2.72a19.44,19.44,0,0,1,8.42-2.71c6.08-.37,6.92-2.1,4.1-7.67-.58-1.13-1.28-2.22-2-3.3-6.51-1.12-12.59-2-15.29,6.62C206.2,173.18,200.26,172.49,197.26,168.78Z"/><path d="M120.51,167.69c1.34,13,3.25,11.18-10.09,13.56a11.91,11.91,0,0,0-1.77.6c-3.93,3.3-9,2.51-13.5,3.75-1.58.44-4,.14-4.24,2.27-.32,2.35,2,3,3.65,4,3.15,1.81,6.85.74,10.09,2a23,23,0,0,0,3.82-.42c8-2.2,7.69-2.17,9.47,5.62.72,3.15-.59,4.11-2.74,5.44-4.49,2.76-9.68,3.37-14.53,5-6.88-.24-13.88.7-20.3-3-11.5-6.6-16.53-21.4-12.63-37.23,3.23-13.1,13.31-23.64,34.4-21.09,4.1,1.56,8.17,3.2,11.44,6.27C119.09,156.89,121.18,160.86,120.51,167.69Z"/><path class="cls-4" d="M371.14,104c1.39-3.32,1.13-7.14,3.91-10.1,7-7.44,12.76-9.11,20-5.24s12.66,13.52,11.08,19.69c-2.06,8-9.42,13.41-18.38,13.54-1.08,0-2.17,0-3.25,0-2.21-.56-4.84.71-6.63-1.58C379.06,113.49,374.31,109.08,371.14,104Z"/><path d="M377.91,120.34c2.2.57,5.39-3,6.63,1.58.29,1.47.53,3,.9,4.41,2.55,10.17,2.56,10.17-7.89,13a3.14,3.14,0,0,0-.61.21c-5.85,2.9-9.38,1.33-10.27-5.32l-2-7c-1.28-3.55,1.33-4.39,3.72-5.59,2.66-1.33,5.59.31,8.19-1Z"/><path class="cls-4" d="M425,87.79c0,2.13-1.63,3.07-3.11,3.8-4.5,2.24-6.56,5.34-4.31,10.32.9,2,.31,3.48-1.78,4s-2.48-1.15-2.89-2.66c-2.48-9.16-5.26-18.25-7.3-27.5-1-4.33,2.23-6.14,6.34-6.17l5.52,5.21c1.64,2.09,5,3.06,4.35,6.63-2.5,3.73-4.78-.93-7.21-.26.68,6.31.68,6.31,6.36,4a5.09,5.09,0,0,1,3.12-.41C425.4,85.45,426,86.39,425,87.79Z"/><path class="cls-5" d="M130.85,277.32c.3-2.61,1.57-4.09,4.34-3.33,3.29.9,14,17.77,13.94,21.84-6.86-1.18-9-7.58-13.07-11.84Z"/><path class="cls-6" d="M222.33,163.52a14.7,14.7,0,0,1,3.41,6.8c.85,1.63-1.17,2.6-2.35,2.74-2.5.3-5,.88-7.47,1.18A92.85,92.85,0,0,0,222.33,163.52Z"/><path class="cls-5" d="M124.12,270c1-2.92,1.41-6.93,6.13-4a3.18,3.18,0,0,1,1.54,3.84c-1,2.91-3.61,2.39-5.89,2.43Z"/><path d="M257.5,194c2.55-5.14,6.07-6,9.56-1.91,3.33,3.9,7,6.47,12.3,5.83,1.78-.22,4.42.93,5-1.62s-1-4.35-3.41-5.63a184,184,0,0,1-16.31-9.41c-11-7.55-10-23,1.72-29.51,6.1-3.41,12.73-4.17,19.54-3.28,4.5.59,8.94,1.57,13.41,2.37,3.46,2,2.13,5.18,2,8-.12,3.23-.53,6.45-.81,9.68-1.23,2.25-3.34,2-5.38,1.88a7.8,7.8,0,0,1-4.78-3.07,19,19,0,0,0-2.16-2.4,13,13,0,0,0-9.6-3,1.34,1.34,0,0,0-1.29,1.82c1.1,3.21,4.16,4.18,6.77,5.61,3,1.65,6.24,3,9.08,5,2.22,1.61,4.59,3,6.85,4.56a14.18,14.18,0,0,1,4.4,6.23c1,3.91,1.71,7.8-.93,11.42-5.49,11.49-15.64,13.9-27,13.55-5.13-.15-10.24-1.08-15.36-1.66-3.74,1.1-5.47-.59-5.82-4.19C256.24,200.85,255,197,257.5,194Z"/><path class="cls-1" d="M330.49,135.37c-5.61-.11-7.67,5-11.36,7.73-2.24,1.64-4.34,3.48-6.51,5.23-.12-10.92,4.14-17,13.25-19.38,3.21-.83,5.11-.4,4.94,3.39C330.7,133.35,330.59,134.36,330.49,135.37Z"/><path d="M331.87,133.4c.71,1.25,1.06,1.85,1.58,2.84,1.67,3.82-.48,8,1.28,11.85,6,2.33,12.33-.17,18.38,1.32C353.2,162,353.2,162,340,162.53c-2.77,1.34-6,2.29-5.53,6.42-.1,5.41-.39,10.83-.27,16.25.2,8.59,2.2,10.1,10.7,9.54,2.77-.18,7-3.41,7.75,2.95.59,4.83,1.2,9.08-5.35,9.87-1.69.21-3.31,1-5,1.37-17.52,3.78-26.12-2.57-27.43-20.2-2.55-7.85-2.24-15.7,0-23.55.66-2.52-.78-2.83-2.81-3-1.71-.14-4.44,1.18-4.76-1.77-.28-2.65-1.15-5.64,1.3-8,1.4-1.33,2.72-2.74,4.07-4.11,2.93-6.05,8.88-9.08,13.49-13.42C327.3,133.78,330.61,131.32,331.87,133.4Z"/><path d="M392.37,208.52l-22.23,0a25.29,25.29,0,0,1-4.54-.3c-2.13-.52-5.91,1.92-5.92-2.63,0-3.46-2.3-8.39,4-9.12,3.17-.37,3.74-2.13,3.69-4.92-.13-7.62-.15-15.26,0-22.88.07-3-.76-5.35-3.56-6.25-4.29-1.37-3.85-4.36-3.53-7.77.39-4.27,3.66-3.61,6.24-4.06,4.28-.77,8.68-1,12.88-2.07,4.79-1.21,6.4.9,6.52,5.13.21,7.61.31,15.22.49,22.84.11,5,.3,10,.45,15,2.26,2.75,5.62,4.55,7.05,8C393.21,202.5,394.81,205.86,392.37,208.52Z"/><path class="cls-7" d="M149.19,177.64a53.62,53.62,0,0,1,.08-7.82c.41-2.69-2.07-6.51,2.17-7.86s8.71-1.14,12.27,2.1c4.64,4.24,6.38,25.06,1.88,29.17-3.79,3.46-9,1.82-13.71,1-4.12-.7-2.49-3.89-2.63-6.16C149,184.61,149.19,181.12,149.19,177.64Z"/><path class="cls-8" d="M430.25,194.93a15.1,15.1,0,0,1-9.95,1.56c-3.47-.65-4.61-3.23-4.85-6.58-.26-3.71,2.5-3.45,4.65-3.83,2.73-.48,5.5-.64,8.26-.94C428.59,188.48,431.94,191.22,430.25,194.93Z"/><path class="cls-9" d="M218.53,196.78c-4.94,0-7.61-2.14-7.92-6.51-.34-4.72,3.6-3.9,6.38-4.43a26.48,26.48,0,0,1,4.51-.56c2.7,0,6.1-2.11,6.93,3,.69,4.27-.67,6.61-4.72,7.54C221.82,196.28,219.89,196.54,218.53,196.78Z"/><path class="cls-10" d="M236.6,148.14c4.47-2.56,7.37-2.83,6,3.71C240.58,150.56,238.59,149.42,236.6,148.14Z"/><path class="cls-11" d="M86.09,170c.11-8.67,4.89-9.58,11.76-7.75a5.62,5.62,0,0,1,4.39,5.71c.09,3.41-3,2.43-4.75,3.1-2.4.92-5.08,1.13-7.46,2.11C86.17,174.73,85.4,173.22,86.09,170Z"/><path class="cls-4" d="M377.88,102.32c0-5.89,4.45-10.55,10-10.46,6.15.11,12.31,7.36,12.27,14.45a10.07,10.07,0,0,1-10.72,10.37C383.65,116.49,377.87,109.29,377.88,102.32Z"/><path class="cls-12" d="M421.21,81.12a5.71,5.71,0,0,1,2.53,4.12c-1.66,1-3.56,1.77-4.95,3.07-2.44,2.28-4,2.48-4.74-1.21-.6-2.87-3.74-6.29-1.39-8.41s4.49,2.1,7,3C420,81.83,420.67,81.33,421.21,81.12Z"/></g></g></svg>